<svg width="370" height="145" viewBox="0 0 370 145" fill="none" xmlns="http://www.w3.org/2000/svg">
<path d="M0 0H15.6869V36.3139H50.3166C71.0352 36.3139 84.0583 48.1435 84.0583 72.6279C84.0583 97.1123 71.0352 108.942 50.3166 108.942H28.7101C9.91533 108.942 0 98.7629 0 77.8549V0ZM48.6887 50.3443H15.6869V77.1671C15.6869 89.5469 20.5706 94.7739 33.2978 94.7739H48.6887C62.3038 94.7739 68.2234 88.3089 68.2234 72.6279C68.2234 56.9468 62.3038 50.3443 48.6887 50.3443Z" fill="white"/>
<path d="M138.257 145H153.79V108.686H188.08C208.596 108.686 221.491 96.8565 221.491 72.3721C221.491 47.8877 208.596 36.0582 188.08 36.0582H166.686C148.075 36.0582 138.257 46.2371 138.257 67.1451V145ZM186.468 94.6557H153.79V67.8329C153.79 55.4531 158.626 50.2261 171.228 50.2261H186.468C199.95 50.2261 205.812 56.6911 205.812 72.3721C205.812 88.0532 199.95 94.6557 186.468 94.6557Z" fill="white"/>
<path d="M277.734 36.356H297.484L323.277 62.721L350.102 36.356H369.558L333.005 72.6597L370 109.24H350.102L322.688 81.218L294.684 109.24H275.228L313.107 71.2794L277.734 36.356Z" fill="white"/>
<path d="M103.356 36.356H119.014V109.24H103.356V36.356Z" fill="white"/>
<path d="M240.446 36.0581H256.104V108.942H240.446V36.0581Z" fill="white"/>
</svg>
